<?xml version="1.0" encoding="UTF-8"?>
<svg version="1.1" xmlns="http://www.w3.org/2000/svg" width="500" height="250">
<path d="M0 0 C7.26 0 14.52 0 22 0 C30 8.74418605 30 8.74418605 30 14 C30.66 14 31.32 14 32 14 C32.66 12.35 33.32 10.7 34 9 C35.98 6.03 37.96 3.06 40 0 C47.26 0 54.52 0 62 0 C62 15.84 62 31.68 62 48 C55.73 48 49.46 48 43 48 C42.67 40.08 42.34 32.16 42 24 C38.79142676 28.93157907 38.79142676 28.93157907 35.59814453 33.87304688 C35.19708496 34.48212891 34.79602539 35.09121094 34.3828125 35.71875 C33.77010498 36.66137695 33.77010498 36.66137695 33.14501953 37.62304688 C32.76716309 38.07744141 32.38930664 38.53183594 32 39 C31.34 39 30.68 39 30 39 C28.59585859 37.11318498 27.27527062 35.16370061 26 33.1875 C25.29875 32.10855469 24.5975 31.02960938 23.875 29.91796875 C23.25625 28.95503906 22.6375 27.99210937 22 27 C21.34 26.01 20.68 25.02 20 24 C19.67 31.92 19.34 39.84 19 48 C12.73 48 6.46 48 0 48 C0 32.16 0 16.32 0 0 Z " fill="#78BE25" transform="translate(299,100)"/>
<path d="M0 0 C6.93 0 13.86 0 21 0 C24.86164961 3.96462693 26.13503491 5.31915876 28 10 C28.99 11.485 28.99 11.485 30 13 C31.1254191 11.39612733 32.25031972 9.79189084 33.375 8.1875 C34.00148438 7.29417969 34.62796875 6.40085937 35.2734375 5.48046875 C36.53550239 3.66732122 37.77458808 1.83811789 39 0 C46.26 0 53.52 0 61 0 C61 15.84 61 31.68 61 48 C55.06 48 49.12 48 43 48 C42.505 35.625 42.505 35.625 42 23 C36.555 30.92 36.555 30.92 31 39 C26.16407059 34.16407059 22.81830779 29.61515852 19 24 C18.67 31.92 18.34 39.84 18 48 C12.06 48 6.12 48 0 48 C0 32.16 0 16.32 0 0 Z " fill="#7BC326" transform="translate(226,100)"/>
<path d="M0 0 C6.88717588 -0.06889728 13.77315438 -0.12862494 20.66040039 -0.16479492 C23.00288954 -0.17987428 25.3453505 -0.20034078 27.68774414 -0.22631836 C31.05622317 -0.26273821 34.42432864 -0.27973513 37.79296875 -0.29296875 C38.83897751 -0.30845261 39.88498627 -0.32393646 40.96269226 -0.33988953 C50.13692729 -0.34200939 50.13692729 -0.34200939 54 3 C56.84038026 7.36599934 57.40894791 10.83991792 57.375 16 C57.38660156 17.7634375 57.38660156 17.7634375 57.3984375 19.5625 C56.79175349 24.79663653 55.26447067 27.8825608 51.3125 31.375 C50.549375 31.91125 49.78625 32.4475 49 33 C49.721875 33.99902344 50.44375 34.99804688 51.1875 36.02734375 C52.12512346 37.33064036 53.06261676 38.63403061 54 39.9375 C54.47695312 40.59685547 54.95390625 41.25621094 55.4453125 41.93554688 C59 46.88671875 59 46.88671875 59 48 C39.44137942 49.80397494 39.44137942 49.80397494 33.828125 45.65625 C31.85561435 42.83837765 30.36738312 40.14953913 29 37 C28.34 36.01 27.68 35.02 27 34 C23.535 33.505 23.535 33.505 20 33 C20 37.95 20 42.9 20 48 C13.4 48 6.8 48 0 48 C0 32.16 0 16.32 0 0 Z M20 14 C20 15.98 20 17.96 20 20 C22.27076842 20.02699725 24.54162821 20.04639453 26.8125 20.0625 C28.70935547 20.07990234 28.70935547 20.07990234 30.64453125 20.09765625 C33.99605237 20.16159116 33.99605237 20.16159116 37 19 C37 17.35 37 15.7 37 14 C31.39 14 25.78 14 20 14 Z " fill="#7BC226" transform="translate(128,100)"/>
<path d="M0 0 C9.24 0 18.48 0 28 0 C30.56827557 6.35189582 33.13337594 12.70488435 35.69042969 19.0612793 C36.56161545 21.22413925 37.43465501 23.38625345 38.30957031 25.54760742 C39.56540967 28.65089753 40.81460063 31.75679128 42.0625 34.86328125 C42.45622803 35.83211746 42.84995605 36.80095367 43.25561523 37.79914856 C43.79617554 39.15020943 43.79617554 39.15020943 44.34765625 40.52856445 C44.66742432 41.32132278 44.98719238 42.11408112 45.31665039 42.93086243 C46 45 46 45 46 48 C39.4 48 32.8 48 26 48 C24 43 24 43 24 40 C17.73 40.33 11.46 40.66 5 41 C4.01 43.31 3.02 45.62 2 48 C-4.6 48 -11.2 48 -18 48 C-14.625 37.875 -14.625 37.875 -13.2824707 34.39819336 C-12.83234367 33.22799904 -12.83234367 33.22799904 -12.37312317 32.03416443 C-12.06050034 31.2275386 -11.7478775 30.42091278 -11.42578125 29.58984375 C-10.9327375 28.31047691 -10.9327375 28.31047691 -10.42973328 27.00526428 C-9.39256254 24.31526907 -8.35258261 21.62637049 -7.3125 18.9375 C-6.60332858 17.09968154 -5.89434249 15.26179156 -5.18554688 13.42382812 C-3.45951321 8.9482531 -1.72967433 4.47417603 0 0 Z M13 15 C11.68 19.29 10.36 23.58 9 28 C12.3 28 15.6 28 19 28 C18.52140759 26.39566191 18.04210442 24.79153584 17.5625 23.1875 C17.29566406 22.29417969 17.02882813 21.40085937 16.75390625 20.48046875 C16.19612127 18.64526945 15.60655425 16.81966274 15 15 C14.34 15 13.68 15 13 15 Z " fill="#7AC125" transform="translate(77,100)"/>
<path d="M0 0 C9.24 0 18.48 0 28 0 C30.5666102 6.51328263 33.13116544 13.02729558 35.69042969 19.54345703 C36.56225755 21.76138451 37.43530127 23.97883444 38.30957031 26.19580078 C39.56372527 29.3766904 40.81354266 32.55925409 42.0625 35.7421875 C42.45622803 36.73805878 42.84995605 37.73393005 43.25561523 38.75997925 C43.61598877 39.68078278 43.9763623 40.6015863 44.34765625 41.55029297 C44.66742432 42.3630368 44.98719238 43.17578064 45.31665039 44.01315308 C46 46 46 46 46 48 C39.4 48 32.8 48 26 48 C25.01 45.69 24.02 43.38 23 41 C16.73 40.67 10.46 40.34 4 40 C3.67 41.98 3.34 43.96 3 46 C2.67 46.66 2.34 47.32 2 48 C-4.6 48 -11.2 48 -18 48 C-16.10002094 41.42256245 -13.97294815 35.06283367 -11.42578125 28.7109375 C-11.09708542 27.88163727 -10.76838959 27.05233704 -10.42973328 26.19790649 C-9.39454631 23.58870482 -8.35363871 20.98183166 -7.3125 18.375 C-6.60313336 16.58999562 -5.89414566 14.80484059 -5.18554688 13.01953125 C-3.46209458 8.6776409 -1.73089872 4.33895644 0 0 Z M13 15 C12.32942113 16.7902061 11.6636531 18.58221489 11 20.375 C10.62875 21.37273437 10.2575 22.37046875 9.875 23.3984375 C8.89373723 25.85848061 8.89373723 25.85848061 9 28 C12.3 28 15.6 28 19 28 C17.68 23.71 16.36 19.42 15 15 C14.34 15 13.68 15 13 15 Z " fill="#7AC125" transform="translate(385,100)"/>
<path d="M0 0 C6.6 0 13.2 0 20 0 C20 15.84 20 31.68 20 48 C13.4 48 6.8 48 0 48 C0 32.16 0 16.32 0 0 Z " fill="#7BC226" transform="translate(194,100)"/>
<path d="M0 0 C0.66 0 1.32 0 2 0 C2.33 1.98 2.66 3.96 3 6 C4.32 5.34 5.64 4.68 7 4 C9.01104219 6.01104219 8.18506471 9.9380562 8.1875 12.6875 C8.19974609 13.39583984 8.21199219 14.10417969 8.22460938 14.83398438 C8.24129755 20.85841429 7.75172094 25.19075987 3.3828125 29.703125 C-0.14652812 32.3817381 -3.8957322 33.58087031 -8.125 34.75 C-8.82753906 34.95753906 -9.53007812 35.16507813 -10.25390625 35.37890625 C-13.48419197 36.32539829 -16.72547129 37.21954238 -20 38 C-21.06414547 34.80756358 -20.81907375 34.07152658 -20 31 C-20.33 30.67 -20.66 30.34 -21 30 C-22.0269064 16.19600825 -22.0269064 16.19600825 -18 11 C-14.60527564 7.88367896 -11.07910805 5.91370691 -6.75 4.375 C-3.23487009 3.08611903 -2.43232926 2.47332357 0 0 Z " fill="#88BF44" transform="translate(214,61)"/>
<path d="M0 0 C0.66 0.33 1.32 0.66 2 1 C2.05434116 3.5419589 2.0938339 6.08273682 2.125 8.625 C2.14175781 9.33785156 2.15851563 10.05070312 2.17578125 10.78515625 C2.23136891 16.8442108 1.78270829 21.15875502 -2.6171875 25.703125 C-6.14652812 28.3817381 -9.8957322 29.58087031 -14.125 30.75 C-14.82753906 30.95753906 -15.53007812 31.16507813 -16.25390625 31.37890625 C-19.48419197 32.32539829 -22.72547129 33.21954238 -26 34 C-27.06414547 30.80756358 -26.81907375 30.07152658 -26 27 C-26.33 26.67 -26.66 26.34 -27 26 C-27.07258946 23.81360547 -27.08373783 21.62499611 -27.0625 19.4375 C-27.05347656 18.23996094 -27.04445312 17.04242188 -27.03515625 15.80859375 C-27.02355469 14.88175781 -27.01195312 13.95492187 -27 13 C-26.67 13 -26.34 13 -26 13 C-26 16.63 -26 20.26 -26 24 C-25.34 24 -24.68 24 -24 24 C-23.78085938 23.13890625 -23.56171875 22.2778125 -23.3359375 21.390625 C-21.77624188 17.43209927 -19.51531369 14.77722329 -16.625 11.75 C-16.14289063 11.22148438 -15.66078125 10.69296875 -15.1640625 10.1484375 C-12.66230352 7.46992381 -10.44441407 5.33858746 -7 4 C-7.845625 4.94875 -8.69125 5.8975 -9.5625 6.875 C-15.39038184 13.69486173 -20.23094049 20.85883147 -24 29 C-23.67 29.33 -23.34 29.66 -23 30 C-20.56932546 28.83605759 -18.15835131 27.64612732 -15.75 26.4375 C-15.06808594 26.11458984 -14.38617188 25.79167969 -13.68359375 25.45898438 C-8.48590667 22.80967785 -6.29563087 20.40080412 -4 15 C-3.42558282 11.57165948 -3.42558282 11.57165948 -3.4375 8.1875 C-3.37109375 4.79296875 -3.37109375 4.79296875 -3 2 C-2.01 1.34 -1.02 0.68 0 0 Z " fill="#19240C" transform="translate(220,65)"/>
<path d="M0 0 C0.66 0 1.32 0 2 0 C2.33 1.98 2.66 3.96 3 6 C2.67 5.34 2.34 4.68 2 4 C1.01 4.66 0.02 5.32 -1 6 C-0.67 6.66 -0.34 7.32 0 8 C-0.680625 8.350625 -1.36125 8.70125 -2.0625 9.0625 C-8.81249846 13.51462664 -12.89936009 19.00128937 -16.73828125 26.05859375 C-17.15464844 26.69925781 -17.57101563 27.33992188 -18 28 C-18.66 28 -19.32 28 -20 28 C-20.10853983 25.77191841 -20.18583307 23.54230068 -20.25 21.3125 C-20.29640625 20.07113281 -20.3428125 18.82976562 -20.390625 17.55078125 C-19.93601262 13.41835469 -18.88790852 11.9144518 -16 9 C-12.53439351 6.49706198 -8.89488656 5.16019639 -4.8671875 3.84375 C-2.75488039 2.88923465 -1.61061775 1.63791635 0 0 Z " fill="#679134" transform="translate(214,61)"/>
<path d="M0 0 C5.33333333 0 10.66666667 0 16 0 C16 3.96 16 7.92 16 12 C14.02 12 12.04 12 10 12 C9.67 11.34 9.34 10.68 9 10 C8.01 9.67 7.02 9.34 6 9 C5.67 9.99 5.34 10.98 5 12 C3.35 12 1.7 12 0 12 C0 8.04 0 4.08 0 0 Z " fill="#68A520" transform="translate(448,99)"/>
<path d="M0 0 C4.95 0 9.9 0 15 0 C15 1.32 15 2.64 15 4 C13.35 4 11.7 4 10 4 C10 6.64 10 9.28 10 12 C8.35 12 6.7 12 5 12 C5 9.36 5 6.72 5 4 C3.35 4 1.7 4 0 4 C0 2.68 0 1.36 0 0 Z " fill="#6FB022" transform="translate(430,99)"/>
<path d="M0 0 C0.66 0.33 1.32 0.66 2 1 C2.05434116 3.5419589 2.0938339 6.08273682 2.125 8.625 C2.14175781 9.33785156 2.15851563 10.05070312 2.17578125 10.78515625 C2.23117714 16.82330872 1.64370391 21.27984475 -2.6875 25.8125 C-6.29286461 28.19340116 -8.7295188 28.74377113 -13 29 C-10 27 -10 27 -7.5625 25.6875 C-4.17346367 23.45569559 -1.5721173 21.14839815 -0.49243164 17.09399414 C-0.16376869 14.9590617 0.06537281 12.83956063 0.25 10.6875 C0.32734375 9.94693359 0.4046875 9.20636719 0.484375 8.44335938 C0.67151741 6.63041732 0.83787704 4.81535046 1 3 C0.34 3 -0.32 3 -1 3 C-1 6.63 -1 10.26 -1 14 C-3.07358419 10.88962372 -3.29487123 10.00438748 -3.3125 6.4375 C-3.32925781 5.65246094 -3.34601563 4.86742188 -3.36328125 4.05859375 C-3.18345703 3.03958984 -3.18345703 3.03958984 -3 2 C-2.01 1.34 -1.02 0.68 0 0 Z " fill="#131C0A" transform="translate(220,65)"/>
<path d="M0 0 C0.66 0 1.32 0 2 0 C2.39345915 8.87468965 2.40624701 14.76520643 -3.3125 21.875 C-6.31334738 24.24776305 -8.22724754 24.73678471 -12 25 C-11.2575 24.4225 -10.515 23.845 -9.75 23.25 C-4.13677699 18.65736299 -1.54890843 15.57423694 -0.66015625 8.16796875 C-0.40513542 5.44658214 -0.18438787 2.72699961 0 0 Z " fill="#6A9A3A" transform="translate(219,68)"/>
<path d="M0 0 C0.33 0 0.66 0 1 0 C1.15684037 4.32291263 1.05089912 7.72506304 -1.77734375 11.15625 C-7.26626537 16 -7.26626537 16 -10 16 C-10 16.66 -10 17.32 -10 18 C-12.97 18.66 -15.94 19.32 -19 20 C-19 19.34 -19 18.68 -19 18 C-18.03578125 17.57589844 -17.0715625 17.15179688 -16.078125 16.71484375 C-8.02633452 13.39176382 -8.02633452 13.39176382 -2.1875 7.3125 C-0.86130566 3.71589358 -0.86130566 3.71589358 0 0 Z " fill="#1F2D10" transform="translate(217,76)"/>
<path d="M0 0 C0.33 0 0.66 0 1 0 C-0.25054274 10.89758673 -0.25054274 10.89758673 -5.234375 14.92578125 C-8.01819955 16.61947981 -10.80145466 16.80808728 -14 17 C-11 15 -11 15 -8.5625 13.6875 C-3.14094011 10.11720446 -1.42724157 6.06577666 0 0 Z " fill="#0B1005" transform="translate(221,77)"/>
<path d="M0 0 C0.87454834 0.00523682 1.74909668 0.01047363 2.65014648 0.01586914 C3.59438477 0.0190918 4.53862305 0.02231445 5.51147461 0.02563477 C6.50469727 0.03401367 7.49791992 0.04239258 8.52124023 0.05102539 C9.51833008 0.05553711 10.51541992 0.06004883 11.54272461 0.06469727 C14.01478872 0.07652532 16.48673541 0.0930069 18.95874023 0.11352539 C18.95874023 0.44352539 18.95874023 0.77352539 18.95874023 1.11352539 C16.9884082 1.15219727 16.9884082 1.15219727 14.97827148 1.19165039 C13.24256173 1.24794368 11.50688594 1.30529074 9.77124023 1.36352539 C8.47476562 1.38479492 8.47476562 1.38479492 7.15209961 1.40649414 C1.84318507 1.60990083 -1.1729525 2.10906652 -5.04125977 6.11352539 C-2.74869997 0.15286993 -2.74869997 0.15286993 0 0 Z " fill="#659F1F" transform="translate(341.041259765625,99.886474609375)"/>
<path d="M0 0 C0.66 0 1.32 0 2 0 C2 1.65 2 3.3 2 5 C3.0725 4.649375 4.145 4.29875 5.25 3.9375 C8.78720743 3.05319814 9.74811124 2.97119449 13 4 C11.58398286 4.48108275 10.16715563 4.95978141 8.75 5.4375 C7.96109375 5.70433594 7.1721875 5.97117187 6.359375 6.24609375 C4.25178012 6.91954708 2.15246027 7.49150595 0 8 C-1.09658936 4.71023192 -0.79953138 3.28696233 0 0 Z " fill="#050702" transform="translate(194,91)"/>
</svg>
